<?xml version="1.0" encoding="UTF-8" standalone="no"?> <svg width="512" height="512" viewBox="0 0 512 512" fill="none" xmlns="http://www.w3.org/2000/svg">
<path d="M32 160C32 89.3075 89.3076 32 160 32H352C422.692 32 480 89.3076 480 160V352C480 422.692 422.692 480 352 480H160C89.3075 480 32 422.692 32 352V160Z" fill="#ECBB3E"/>
<path d="M32 144C32 82.1441 82.1441 32 144 32H344C405.856 32 456 82.1441 456 144V344C456 405.856 405.856 456 344 456H144C82.1441 456 32 405.856 32 344V144Z" fill="#FFE459"/>
<path fill-rule="evenodd" clip-rule="evenodd" d="M414.793 57.2067L57.2067 414.793C41.4504 395.499 32 370.853 32 344V144C32 82.1441 82.1441 32 144 32H344C370.853 32 395.499 41.4504 414.793 57.2067Z" fill="#FFED91"/>
<path fill-rule="evenodd" clip-rule="evenodd" d="M192 144C187.582 144 184 147.582 184 152C184 156.418 187.582 160 192 160H248C274.51 160 296 181.49 296 208H192C187.582 208 184 211.582 184 216C184 220.418 187.582 224 192 224H296C296 250.51 274.51 272 248 272H195.733C192.347 272 189.328 274.132 188.195 277.323C187.061 280.514 188.06 284.072 190.687 286.208L298.954 374.208C302.383 376.995 307.421 376.474 310.208 373.046C312.995 369.617 312.474 364.579 309.046 361.792L218.259 288H248C283.346 288 312 259.346 312 224H336C340.418 224 344 220.418 344 216C344 211.582 340.418 208 336 208H312C312 188.885 303.62 171.727 290.333 160H336C340.418 160 344 156.418 344 152C344 147.582 340.418 144 336 144H248H192Z" fill="#A24400"/>
</svg>
